<svg width="20" height="20" viewBox="0 0 20 20" fill="none" xmlns="http://www.w3.org/2000/svg">
<g clip-path="url(#clip0_55414_632)">
<path d="M10.625 16.875V2.49999C10.6249 2.38688 10.5942 2.27591 10.536 2.1789C10.4778 2.0819 10.3944 2.0025 10.2946 1.94918C10.1949 1.89585 10.0825 1.8706 9.96956 1.87611C9.85658 1.88162 9.74722 1.91768 9.65313 1.98046L3.40313 6.14687C3.3174 6.20406 3.24715 6.28157 3.19862 6.37248C3.1501 6.4634 3.12481 6.5649 3.125 6.66796V16.875" stroke="#5B5B62" stroke-width="1.2" stroke-linecap="round" stroke-linejoin="round"/>
<path d="M10.625 6.875H16.25C16.4158 6.875 16.5747 6.94085 16.6919 7.05806C16.8092 7.17527 16.875 7.33424 16.875 7.5V16.875" stroke="#5B5B62" stroke-width="1.2" stroke-linecap="round" stroke-linejoin="round"/>
<path d="M1.25 16.875H18.75" stroke="#5B5B62" stroke-width="1.2" stroke-linecap="round" stroke-linejoin="round"/>
<path d="M8.125 8.75V10" stroke="#5B5B62" stroke-width="1.2" stroke-linecap="round" stroke-linejoin="round"/>
<path d="M5.625 8.75V10" stroke="#5B5B62" stroke-width="1.2" stroke-linecap="round" stroke-linejoin="round"/>
<path d="M5.625 13.125V14.375" stroke="#5B5B62" stroke-width="1.2" stroke-linecap="round" stroke-linejoin="round"/>
<path d="M8.125 13.125V14.375" stroke="#5B5B62" stroke-width="1.2" stroke-linecap="round" stroke-linejoin="round"/>
</g>
<defs>
<clipPath id="clip0_55414_632">
<rect width="20" height="20" fill="white"/>
</clipPath>
</defs>
</svg>
